<svg width="48" height="48" viewBox="0 0 48 48" fill="none" xmlns="http://www.w3.org/2000/svg">
<path d="M20.3134 0.123642C12.5402 1.20696 5.77137 6.16856 2.32146 13.2751C-2.76607 23.7833 0.749349 36.4365 10.5095 42.8931C16.0338 46.5547 22.9554 47.7247 29.353 46.1431C30.1173 45.9481 30.7505 45.6664 30.7286 45.5364C30.7286 45.4064 29.2875 43.4348 27.5189 41.1815L24.2873 37.0648L22.5624 36.9348C20.2916 36.7615 19.1998 36.4582 17.191 35.4182C13.0642 33.2949 10.2694 29.0049 9.89816 24.26C9.4833 18.9517 12.6275 13.4918 17.453 11.2168C19.833 10.0902 21.2305 9.76518 23.7633 9.78685C27.5189 9.80852 30.4884 11.0652 33.2615 13.8601C36.231 16.8284 37.3883 19.7534 37.2573 24L37.1917 26.3183L37.8686 27.0333C38.2617 27.4233 39.7683 29.3083 41.2312 31.2149C42.6941 33.1216 43.9824 34.7032 44.0916 34.7465C44.4628 34.8982 45.751 31.8432 46.5152 29.0483C47.0611 27.055 47.2795 22.245 46.9301 19.8184C46.1877 14.7268 43.7422 10.1768 39.7246 6.36356C36.5367 3.35193 32.7374 1.31529 28.5888 0.426971C26.7984 0.0369764 22.1475 -0.136355 20.3134 0.123642Z" fill="white"/>
<path d="M25.1171 27.2066C23.8943 27.6399 22.4532 28.4416 22.4532 28.6799C22.4532 28.9183 34.4187 44.3664 35.2703 45.233C35.707 45.688 36.7114 46.3814 37.4974 46.793C39.8774 48.0063 42.1919 48.3097 44.5938 47.6813C45.9912 47.313 48 46.2947 48 45.948C48 45.818 45.1178 42.0264 41.6024 37.5198C34.6589 28.5716 34.1567 28.0516 31.4273 27.2066C29.615 26.6433 26.7547 26.6433 25.1171 27.2066Z" fill="white"/>
</svg>
