<svg width="294" height="296" viewBox="0 0 294 296" fill="none" xmlns="http://www.w3.org/2000/svg">
<path d="M124.043 0.760802C76.5759 7.42747 35.2425 37.9608 14.1759 81.6941C-16.8908 146.361 4.57585 224.227 64.1759 263.961C97.9092 286.494 140.176 293.694 179.243 283.961C183.909 282.761 187.776 281.027 187.643 280.227C187.643 279.427 178.843 267.294 168.043 253.427L148.309 228.094L137.776 227.294C123.909 226.227 117.243 224.361 104.976 217.961C79.7759 204.894 62.7092 178.494 60.4425 149.294C57.9092 116.627 77.1092 83.0275 106.576 69.0275C121.109 62.0941 129.643 60.0941 145.109 60.2275C168.043 60.3608 186.176 68.0941 203.109 85.2941C221.243 103.561 228.309 121.561 227.509 147.694L227.109 161.961L231.243 166.361C233.643 168.761 242.843 180.361 251.776 192.094C260.709 203.827 268.576 213.561 269.243 213.827C271.509 214.761 279.376 195.961 284.043 178.761C287.376 166.494 288.709 136.894 286.576 121.961C282.043 90.6275 267.109 62.6275 242.576 39.1608C223.109 20.6275 199.909 8.09414 174.576 2.62747C163.643 0.227469 135.243 -0.839198 124.043 0.760802Z" fill="black"/>
<path d="M153.376 167.427C145.909 170.094 137.109 175.027 137.109 176.494C137.109 177.961 210.176 273.027 215.376 278.361C218.042 281.161 224.176 285.427 228.976 287.961C243.509 295.427 257.643 297.294 272.309 293.427C280.843 291.161 293.109 284.894 293.109 282.761C293.109 281.961 275.509 258.627 254.043 230.894C211.642 175.827 208.576 172.627 191.909 167.427C180.842 163.961 163.376 163.961 153.376 167.427Z" fill="black"/>
</svg>
